<?xml version="1.0" standalone="no"?>
<!DOCTYPE svg PUBLIC "-//W3C//DTD SVG 20010904//EN"
 "http://www.w3.org/TR/2001/REC-SVG-20010904/DTD/svg10.dtd">
<svg version="1.0" xmlns="http://www.w3.org/2000/svg"
 width="290.000000pt" height="290.000000pt" viewBox="0 0 290.000000 290.000000"
 preserveAspectRatio="xMidYMid meet">
<metadata>
Created by potrace 1.11, written by Peter Selinger 2001-2013
</metadata>
<g transform="translate(0.000000,290.000000) scale(0.100000,-0.100000)"
fill="#000000" stroke="none">
<path d="M1453 2867 c-29 -17 -42 -39 -49 -87 -11 -68 -7 -129 10 -155 21 -31
20 -43 -4 -90 -28 -55 -36 -105 -19 -116 18 -11 14 -11 -52 0 -30 6 -83 13
-119 16 -36 4 -66 8 -68 10 -2 2 -4 23 -5 48 -1 25 -4 44 -8 41 -4 -2 -6 -24
-4 -49 2 -43 1 -45 -27 -45 -15 0 -31 -1 -35 -2 -58 -14 -83 -14 -83 -2 0 8
-4 14 -10 14 -5 0 -7 -7 -4 -15 4 -10 0 -15 -15 -15 -12 0 -24 -1 -28 -2 -5
-1 -23 -5 -40 -9 -32 -7 -33 -6 -33 25 1 66 22 173 44 222 23 50 67 102 116
137 l25 17 -30 -14 c-58 -28 -124 -115 -144 -192 -11 -40 -24 -137 -25 -181
-1 -17 -10 -23 -48 -31 -38 -7 -48 -6 -48 4 0 24 -37 36 -54 18 -13 -13 -14
-19 -4 -37 7 -12 12 -24 11 -27 -16 -47 -162 -469 -167 -481 -9 -20 31 -78 70
-101 56 -33 149 -25 196 15 43 37 50 68 32 135 -8 31 -17 68 -20 81 -3 14 -13
56 -23 95 -35 134 -63 267 -58 272 8 8 95 9 103 1 4 -4 9 -35 11 -70 6 -113
21 -156 73 -208 35 -35 57 -48 88 -54 22 -3 43 -13 46 -21 3 -7 5 -95 5 -195
0 -154 -3 -189 -19 -232 l-19 -50 25 24 c13 12 36 47 50 75 24 50 26 62 26
211 0 87 0 167 -1 178 -1 17 -9 20 -52 22 -126 3 -193 83 -205 243 l-6 85 43
-2 c24 0 55 -2 70 -2 22 -1 27 -8 44 -67 12 -43 32 -83 56 -111 41 -50 64
-119 74 -223 20 -216 75 -316 159 -294 l27 6 -29 18 c-67 41 -89 103 -95 270
-7 159 -40 236 -130 301 -38 27 -75 85 -62 97 6 7 494 7 500 0 3 -3 -10 -49
-28 -104 -19 -54 -58 -169 -87 -256 l-53 -156 19 -33 c52 -89 207 -97 273 -13
12 15 21 35 21 45 0 11 -16 84 -35 163 -19 80 -35 147 -35 149 0 3 8 3 18 0
22 -5 111 86 113 117 1 11 2 26 3 33 1 16 64 21 82 6 20 -16 27 -6 20 28 -8
34 -46 79 -76 88 -11 3 -20 9 -21 13 0 4 -2 17 -5 29 -2 13 5 41 17 62 32 62
26 196 -12 257 -21 34 -65 57 -113 60 -17 0 -49 6 -71 12 -48 12 -68 12 -92
-1z m144 -124 c64 -52 83 -72 83 -88 0 -14 -6 -15 -32 -8 -18 4 -52 8 -75 8
-24 0 -43 3 -43 6 0 9 39 19 75 19 26 1 28 2 12 11 -26 15 -100 2 -131 -22
-35 -27 -33 -39 7 -39 l32 0 -30 -19 c-16 -10 -32 -17 -34 -15 -10 9 -11 85
-2 102 6 11 29 28 51 38 22 10 40 21 40 26 0 14 11 9 47 -19z m88 -158 c0 -17
-8 -57 -18 -90 -20 -66 -17 -92 16 -136 21 -30 21 -30 2 -66 -11 -21 -34 -42
-55 -52 -19 -9 -38 -20 -42 -26 -9 -13 -12 -8 -26 50 -20 82 -23 105 -12 105
16 0 12 36 -6 51 -14 11 -19 10 -34 -8 -14 -18 -24 -21 -54 -16 -50 8 -54 20
-5 17 54 -3 60 13 39 95 -10 36 -14 70 -10 75 15 15 103 33 155 32 48 -1 50
-2 50 -31z m-135 -325 c12 -47 24 -92 25 -100 2 -8 14 -53 25 -100 12 -47 24
-98 27 -114 2 -16 9 -40 14 -53 10 -27 22 -25 -150 -24 -62 0 -115 2 -117 4
-2 2 30 104 71 226 41 122 75 229 75 238 0 30 8 9 30 -77z m-778 -141 c28
-118 51 -223 52 -233 1 -15 -5 -19 -26 -19 -16 1 -77 1 -136 2 l-109 1 58 173
c33 94 68 200 80 235 12 35 23 61 25 59 3 -2 28 -101 56 -218z"/>
<path d="M1058 2803 c6 -2 18 -2 25 0 6 3 1 5 -13 5 -14 0 -19 -2 -12 -5z"/>
<path d="M1137 2789 c7 -7 15 -10 18 -7 3 3 -2 9 -12 12 -14 6 -15 5 -6 -5z"/>
<path d="M1133 2605 c0 -8 4 -12 9 -9 5 3 6 10 3 15 -9 13 -12 11 -12 -6z"/>
<path d="M1135 2560 c-3 -5 -1 -10 4 -10 6 0 11 5 11 10 0 6 -2 10 -4 10 -3 0
-8 -4 -11 -10z"/>
<path d="M1386 2311 c17 -10 41 -31 53 -46 26 -34 38 -26 22 13 -13 31 -47 52
-84 52 -20 0 -19 -2 9 -19z"/>
<path d="M1349 2240 c22 -33 43 -80 47 -103 6 -38 8 -40 17 -20 17 39 -1 91
-48 138 -24 25 -46 45 -49 45 -3 0 12 -27 33 -60z"/>
<path d="M1187 2283 c-17 -16 -4 -53 29 -84 92 -87 114 -112 121 -137 6 -24 7
-24 13 -7 12 32 2 116 -17 144 -43 66 -120 110 -146 84z"/>
<path d="M1742 2242 c-39 -33 -60 -91 -56 -155 3 -64 10 -68 25 -18 24 80 94
135 140 110 28 -14 23 -36 -7 -36 -35 0 -80 -46 -99 -102 l-15 -45 42 42 c51
52 103 70 144 51 16 -8 30 -22 32 -32 3 -14 -5 -17 -52 -17 -60 0 -82 -14 -92
-58 -4 -15 -11 -32 -16 -38 -8 -11 -1 -129 8 -146 8 -13 19 -164 19 -265 0
-56 3 -99 6 -95 7 8 35 192 45 295 6 57 9 65 21 55 21 -17 39 -57 47 -102 9
-47 44 -120 96 -196 20 -30 40 -68 45 -85 4 -16 9 -25 12 -18 5 14 -22 72 -81
171 -26 44 -48 95 -55 131 -8 40 -23 74 -46 104 -19 25 -40 56 -45 69 -5 13
-15 30 -22 39 -29 41 37 109 97 102 17 -2 38 -5 49 -6 48 -5 177 -395 188
-569 1 -21 6 -38 11 -38 4 0 6 8 3 18 -2 9 -8 46 -12 82 -10 93 -10 88 -28
165 -34 142 -154 434 -191 465 -9 7 -27 34 -40 59 -30 61 -56 82 -103 87 -31
3 -45 -2 -70 -24z"/>
<path d="M1666 1778 c-2 -7 -9 -33 -15 -58 -31 -120 -66 -185 -178 -328 -83
-106 -129 -192 -151 -282 -17 -66 -30 -222 -19 -210 3 3 14 43 26 89 26 105
53 160 100 210 124 130 184 216 232 336 6 17 13 81 14 143 2 105 -1 130 -9
100z"/>
<path d="M1474 1619 c-88 -92 -185 -101 -254 -23 -39 44 -38 24 1 -44 68 -119
203 -116 280 7 50 79 32 121 -27 60z"/>
<path d="M1111 1592 c-2 -21 -113 -126 -147 -140 -58 -24 -75 -85 -45 -156 26
-60 36 -63 37 -10 2 45 12 63 89 149 43 49 78 120 72 149 -2 11 -5 15 -6 8z"/>
<path d="M1209 1428 c-1 -7 -2 -20 -3 -28 -3 -24 14 -51 37 -59 24 -9 77 10
117 41 25 20 25 20 2 13 -36 -11 -106 3 -131 26 -14 13 -21 16 -22 7z"/>
<path d="M1092 1318 c-24 -47 -38 -84 -32 -86 6 -2 24 -15 40 -29 l30 -25 1
49 c0 26 3 76 5 111 3 34 4 62 2 62 -2 0 -23 -37 -46 -82z"/>
<path d="M2183 1335 c0 -8 4 -12 9 -9 5 3 6 10 3 15 -9 13 -12 11 -12 -6z"/>
<path d="M2193 1291 c0 -11 5 -18 9 -15 4 3 5 11 1 19 -7 21 -12 19 -10 -4z"/>
<path d="M1760 1202 c-55 -94 -114 -172 -205 -272 -56 -62 -98 -120 -123 -169
-35 -70 -37 -80 -39 -180 -3 -179 51 -337 150 -439 43 -44 54 -50 54 -29 0 18
13 183 19 247 10 116 36 298 50 359 26 115 1 79 -52 -73 -55 -158 -72 -363
-40 -468 18 -60 11 -62 -14 -4 -34 81 -57 216 -58 342 -1 179 23 282 87 382
32 49 136 152 154 152 6 0 1 -86 -8 -135 -10 -54 42 53 56 115 11 50 16 216 7
225 -2 3 -19 -22 -38 -53z"/>
<path d="M2133 1213 c-19 -7 -16 -27 8 -57 l20 -26 -83 0 -84 0 -2 -35 c-2
-19 2 -35 7 -35 6 0 9 12 8 27 -2 28 -1 28 63 29 36 1 73 -2 82 -7 10 -5 19
-5 22 0 3 5 32 8 63 8 l58 -2 5 -40 c3 -22 8 -35 11 -30 5 8 5 37 0 78 -1 4
-25 7 -55 7 -54 0 -54 0 -60 35 -6 28 -32 58 -48 54 -2 0 -9 -3 -15 -6z"/>
<path d="M1016 1178 c-15 -23 -31 -79 -40 -133 -17 -111 -18 -120 -8 -110 18
19 112 169 113 182 1 7 2 19 3 26 2 13 -33 57 -46 57 -4 0 -14 -10 -22 -22z"/>
<path d="M2058 1093 c-10 -2 -18 -9 -18 -14 0 -14 16 -11 30 6 7 8 11 14 9 14
-2 -1 -12 -3 -21 -6z"/>
<path d="M2250 1080 c19 -13 30 -13 30 0 0 6 -10 10 -22 10 -19 0 -20 -2 -8
-10z"/>
<path d="M1085 1028 c-7 -18 -23 -45 -35 -61 -23 -29 -34 -109 -18 -139 5 -10
18 -18 30 -18 24 0 88 45 88 62 0 6 -6 5 -16 -3 -14 -11 -18 -10 -30 6 -8 11
-12 25 -10 32 9 22 18 153 12 153 -4 0 -13 -15 -21 -32z"/>
<path d="M1990 1005 c0 -25 5 -45 10 -45 6 0 10 4 10 10 0 18 62 42 91 36 16
-3 29 -1 29 4 0 6 -3 10 -7 11 -5 0 -16 2 -25 4 -10 2 -33 -5 -53 -15 -38 -19
-42 -17 -39 18 0 12 -3 22 -7 22 -5 0 -9 -20 -9 -45z"/>
<path d="M2180 999 c0 -17 4 -28 10 -24 5 3 7 12 3 20 -4 11 3 15 28 15 39 0
34 9 -10 15 -29 3 -31 1 -31 -26z"/>
<path d="M1202 964 c-2 -20 -7 -45 -13 -55 -5 -11 -7 -19 -5 -19 3 0 -5 -20
-18 -45 l-24 -44 24 -16 c31 -20 21 -42 -27 -56 -21 -7 -39 -16 -39 -21 0 -11
73 -79 78 -73 2 2 -1 12 -7 23 -17 31 -14 37 20 39 18 1 34 5 37 8 6 5 4 97
-3 130 -2 11 -4 53 -4 93 -1 74 -15 100 -19 36z"/>
<path d="M2110 960 c0 -16 5 -30 10 -30 6 0 9 14 8 30 -1 17 -6 30 -10 30 -4
0 -8 -13 -8 -30z"/>
<path d="M1276 546 c40 -79 104 -248 104 -276 0 -36 19 -21 22 18 3 41 -16
132 -37 172 -19 37 -105 150 -114 150 -5 0 7 -29 25 -64z"/>
</g>
</svg>
